<?xml version="1.0" standalone="no"?>
<!DOCTYPE svg PUBLIC "-//W3C//DTD SVG 20010904//EN"
 "http://www.w3.org/TR/2001/REC-SVG-20010904/DTD/svg10.dtd">
<svg version="1.0" xmlns="http://www.w3.org/2000/svg"
 width="800.000000pt" height="800.000000pt" viewBox="0 0 800.000000 800.000000"
 preserveAspectRatio="xMidYMid meet">
<metadata>
Created by potrace 1.14, written by Peter Selinger 2001-2017
</metadata>
<g transform="translate(0.000000,800.000000) scale(0.100000,-0.100000)"
fill="#000000" stroke="none">
<path d="M4944 6467 c-6 -7 -46 -43 -89 -82 -273 -245 -251 -222 -228 -247 10
-12 33 -37 51 -56 17 -18 32 -34 32 -35 0 -1 -33 -2 -73 -2 -39 1 -77 -3 -83
-7 -7 -5 -10 -53 -8 -140 2 -73 6 -324 9 -558 3 -234 7 -560 10 -725 2 -165 7
-462 9 -660 3 -198 8 -538 12 -755 3 -217 7 -514 7 -660 1 -146 6 -268 10
-271 10 -7 454 -2 466 6 9 5 9 113 -3 1005 l-5 345 56 40 c46 33 133 97 260
191 13 9 62 45 110 80 49 35 93 67 98 71 6 5 26 19 45 33 19 13 37 27 40 30 6
7 206 152 228 165 9 6 19 12 22 15 10 11 211 160 215 160 4 0 134 96 237 174
25 20 49 36 53 36 4 0 13 8 20 17 10 14 9 22 -8 45 l-21 28 37 33 c20 18 37
37 37 42 0 6 -20 31 -43 56 -81 88 -212 232 -230 253 -10 12 -50 56 -90 99
-40 44 -76 84 -82 91 -5 6 -50 56 -100 111 -49 55 -94 105 -100 111 -5 6 -44
48 -85 94 -41 46 -86 95 -99 109 -12 14 -55 62 -95 105 -39 44 -82 91 -96 106
-30 33 -141 156 -167 186 -10 12 -56 63 -103 114 -47 51 -93 102 -102 112 -58
67 -134 148 -138 148 -3 -1 -10 -6 -16 -13z m108 -796 c2 -4 38 -47 82 -95 43
-47 86 -94 95 -104 44 -51 160 -180 191 -213 19 -20 60 -65 91 -100 32 -35 68
-75 80 -90 13 -14 58 -63 99 -108 41 -46 92 -102 113 -125 36 -39 45 -56 29
-56 -4 0 -41 -25 -82 -56 -41 -30 -84 -62 -95 -70 -11 -8 -68 -50 -127 -94
-59 -44 -110 -80 -114 -80 -3 0 -11 -6 -18 -12 -7 -7 -24 -21 -37 -31 -13 -9
-85 -62 -161 -117 -75 -55 -138 -100 -141 -100 -6 0 -6 -1 -12 450 -3 179 -7
479 -9 668 -4 295 -1 376 16 333z"/>
<path d="M2505 6384 c-43 -38 -172 -154 -214 -193 -14 -13 -37 -33 -51 -45
-42 -35 -43 -43 -8 -82 18 -20 50 -55 71 -78 20 -22 37 -43 37 -46 0 -3 -45
-5 -100 -5 -59 0 -101 -4 -103 -10 -2 -5 -3 -68 -1 -140 1 -71 5 -330 9 -575
4 -245 8 -551 11 -680 7 -458 14 -899 19 -1210 2 -173 5 -315 5 -315 1 0 3
-112 5 -250 2 -137 4 -255 4 -261 1 -7 16 -11 39 -10 39 2 55 -12 254 -222
l58 -60 121 116 c67 65 156 151 199 192 43 41 151 145 240 230 89 85 202 194
251 241 48 47 155 149 236 227 81 77 187 179 235 225 l88 84 -53 56 c-125 132
-263 273 -274 280 -7 4 -41 -21 -86 -65 -84 -81 -207 -200 -471 -453 -98 -93
-218 -209 -268 -258 -50 -48 -93 -86 -94 -84 -3 3 -8 265 -19 1007 -3 168 -7
429 -10 580 -2 151 -7 451 -10 665 l-5 390 32 -35 c17 -19 51 -57 76 -85 25
-27 82 -90 126 -140 44 -49 92 -102 106 -116 14 -14 48 -52 75 -84 28 -31 66
-74 85 -94 19 -21 67 -72 105 -115 39 -43 79 -88 90 -100 11 -12 54 -60 95
-106 41 -45 94 -103 118 -128 23 -24 42 -48 42 -53 0 -4 6 -12 13 -16 8 -4 42
-39 77 -78 34 -38 66 -70 71 -70 6 0 111 89 158 135 9 9 55 51 104 95 48 43
87 81 87 84 0 3 -15 22 -33 42 -80 91 -165 185 -197 219 -19 21 -62 68 -95
106 -33 38 -78 87 -100 110 -22 23 -63 68 -91 100 -28 33 -68 77 -89 99 -20
22 -62 69 -93 104 -31 35 -70 78 -87 96 -40 43 -149 164 -172 191 -10 12 -56
63 -103 114 -47 51 -92 100 -100 110 -31 35 -156 173 -185 204 -68 73 -160
179 -163 187 -7 17 -27 9 -67 -27z"/>
</g>
</svg>
